<svg id="Layer_1" data-name="Layer 1" xmlns="http://www.w3.org/2000/svg" viewBox="0 0 472.31 273.17"><defs><style>.cls-1{fill:#231f20;}.cls-2{fill:#c82127;}</style></defs><path class="cls-1" d="M1036.28,383V360.85H1012V383h-6.17V334.88H1012v20.5h24.24v-20.5h6.18V383Z" transform="translate(-1005.87 -197.5)"/><path class="cls-1" d="M1064.34,383V362.29l-16.12-27.41h7.06l12,21.38h.21l12.06-21.38h7l-16.12,27.38V383Z" transform="translate(-1005.87 -197.5)"/><path class="cls-1" d="M1125.25,349.88c0,9-6.14,15-15.31,15h-11.4V383h-6.14V334.88h17.54C1119.11,334.88,1125.25,340.92,1125.25,349.88Zm-15.77-9.53h-10.94v19h7.3c8.26,0,13.09-1.62,13.09-9.52C1118.93,343.84,1115.48,340.35,1109.48,340.35Z" transform="translate(-1005.87 -197.5)"/><path class="cls-1" d="M1161.84,383H1133V334.88h28.89v5.5h-22.75v15.39h21.48v5.36h-21.48v16.41h22.75Z" transform="translate(-1005.87 -197.5)"/><path class="cls-1" d="M1204.58,349.24c0,7.9-4.73,11.89-9,13.41l9.81,20.39h-7l-8.89-19.16h-11.68V383h-6.14V334.88h17.39C1199.82,334.88,1204.58,341.69,1204.58,349.24ZM1188,358.48c6.74,0,10.2-3.21,10.2-8.89,0-6.14-3.92-9.28-9.91-9.28h-10.48v18.17Z" transform="translate(-1005.87 -197.5)"/><path class="cls-1" d="M1220.56,382.48V335.75h31.15v9.08h-19.82v11.22h18v8.84h-18v17.59Z" transform="translate(-1005.87 -197.5)"/><path class="cls-1" d="M1295,351.05a14.05,14.05,0,0,1-8.36,13.18l9.32,18.25h-12.53l-7.91-16.67h-6.4v16.67H1258V335.75h19.79C1289.29,335.75,1295,342.26,1295,351.05Zm-19,6.75c4.38,0,7.32-2.23,7.32-6.64,0-4.62-3.18-6.92-7.22-6.92h-7V357.8Z" transform="translate(-1005.87 -197.5)"/><path class="cls-1" d="M1297.88,382.48l15.06-46.73h13.84l15,46.73h-12l-3-10.71h-14.44l-3,10.71Zm21.4-36.59-5,17.69h10.34l-4.86-17.69Z" transform="translate(-1005.87 -197.5)"/><path class="cls-1" d="M1346.63,382.48V335.75h11.7l12,26.4h.34l12-26.4h11.57v46.73h-10.16V353.55h-.48l-9.86,21.88h-6.64l-9.9-21.88h-.51v28.93Z" transform="translate(-1005.87 -197.5)"/><path class="cls-1" d="M1434.81,382.48h-31.4V335.75h31.4v9h-20.2v10.1h18.93v8.29h-18.93v10.4h20.2Z" transform="translate(-1005.87 -197.5)"/><path class="cls-1" d="M1450.86,368.79c.2,3,3.08,5.92,8.52,5.92,5.17,0,7.64-2.26,7.64-5.34,0-2.91-2.37-4.24-6.92-5.2l-6.61-1.44c-6.91-1.37-12.42-5.14-12.42-13.28,0-9.35,7.8-14.59,18.24-14.59,11.3,0,18,6.3,18.08,14.28H1467c-.21-2.91-2.64-5.75-7.67-5.75-4.42,0-7,2.09-7,5.17,0,2.49,2.23,4,6.26,4.82l6.78,1.37c6.71,1.3,12.81,4.62,12.81,13.49,0,9.14-7,15.1-19.21,15.1-14.27,0-18.79-7.77-18.89-14.55Z" transform="translate(-1005.87 -197.5)"/><polygon class="cls-2" points="264.19 262.6 264.19 273.17 214.18 273.17 214.18 224.7 224.74 224.7 224.74 262.6 264.19 262.6"/><polygon class="cls-2" points="428.19 224.7 428.19 273.17 381.24 273.17 381.24 262.6 417.62 262.6 417.62 224.7 428.19 224.7"/><polygon class="cls-2" points="428.19 59.16 428.19 107.64 417.62 107.64 417.62 69.72 381.24 69.72 381.24 59.16 428.19 59.16"/><polygon class="cls-2" points="264.19 59.16 264.19 69.72 224.74 69.72 224.74 107.64 214.18 107.64 214.18 59.16 264.19 59.16"/><polygon class="cls-1" points="392.26 0 392.26 44.59 381.48 44.59 381.48 10.78 68.88 10.78 68.88 126.64 58.1 126.64 58.1 0 392.26 0"/><polygon class="cls-1" points="199.69 224.68 199.69 235.46 58.1 235.46 58.1 197.26 68.88 197.26 68.88 224.68 199.69 224.68"/></svg>