<?xml version="1.0" encoding="utf-8"?>
<!-- Generator: Adobe Illustrator 25.0.0, SVG Export Plug-In . SVG Version: 6.00 Build 0)  -->
<svg version="1.1" id="Layer_1" xmlns="http://www.w3.org/2000/svg" xmlns:xlink="http://www.w3.org/1999/xlink" x="0px" y="0px"
	 viewBox="0 0 841.89 595.28" style="enable-background:new 0 0 841.89 595.28;" xml:space="preserve">
<style type="text/css">
	.st0{fill:#FFFFFF;}
	.st1{fill:#C82127;}
</style>
<g>
	<g>
		<path class="st0" d="M77.55,379.35v-37.04H37.1v37.04H26.79v-80.38H37.1v34.21h40.45v-34.21h10.31v80.38H77.55z"/>
		<path class="st0" d="M124.39,379.35v-34.63l-26.91-45.75h11.78l20.08,35.69h0.35l20.14-35.69h11.66l-26.91,45.7v34.68H124.39z"/>
		<path class="st0" d="M226.04,323.99c0,15.07-10.25,24.97-25.56,24.97h-19.02v30.38h-10.25v-80.38h29.27
			C215.8,298.97,226.04,309.04,226.04,323.99z M199.72,308.1h-18.25v31.8h12.19c13.78,0,21.85-2.71,21.85-15.9
			C215.5,313.92,209.73,308.1,199.72,308.1z"/>
		<path class="st0" d="M287.12,379.35H238.9v-80.38h48.23v9.19h-37.98v25.68H285v8.95h-35.86v27.38h37.98V379.35z"/>
		<path class="st0" d="M358.45,322.93c0,13.19-7.89,19.84-14.96,22.38l16.37,34.04h-11.72l-14.84-31.97h-19.49v31.97h-10.25v-80.38
			h29.03C350.5,298.97,358.45,310.33,358.45,322.93z M330.83,338.36c11.25,0,17.02-5.36,17.02-14.84c0-10.25-6.54-15.49-16.55-15.49
			h-17.49v30.33H330.83z"/>
	</g>
	<g>
		<path class="st0" d="M385.12,378.41v-77.99h51.99v15.14h-33.08v18.74h30.11v14.74h-30.11v29.37H385.12z"/>
		<path class="st0" d="M509.33,325.96c0,12.86-8.63,19.83-13.94,22l15.54,30.45h-20.91l-13.2-27.83h-10.68v27.83h-18.57v-77.99
			h33.02C499.84,300.42,509.33,311.28,509.33,325.96z M477.62,337.22c7.31,0,12.23-3.71,12.23-11.08c0-7.71-5.31-11.54-12.05-11.54
			h-11.66v22.63H477.62z"/>
		<path class="st0" d="M514.18,378.41l25.14-77.99h23.08l24.97,77.99h-20.11l-5.03-17.88h-24.11l-5.08,17.88H514.18z M549.89,317.34
			l-8.28,29.54h17.26l-8.11-29.54H549.89z"/>
		<path class="st0" d="M595.53,378.41v-77.99h19.54l20,44.05h0.57l20.06-44.05h19.31v77.99h-16.97v-48.28h-0.8l-16.46,36.51H629.7
			l-16.51-36.51h-0.86v48.28H595.53z"/>
		<path class="st0" d="M742.71,378.41h-52.39v-77.99h52.39v14.97H709v16.85h31.6v13.83H709v17.37h33.71V378.41z"/>
		<path class="st0" d="M769.5,355.56c0.34,5.08,5.14,9.88,14.23,9.88c8.63,0,12.74-3.77,12.74-8.91c0-4.86-3.94-7.08-11.54-8.69
			l-11.03-2.4c-11.54-2.29-20.74-8.57-20.74-22.17c0-15.6,13.03-24.34,30.45-24.34c18.85,0,30,10.51,30.17,23.83h-17.43
			c-0.34-4.86-4.4-9.6-12.8-9.6c-7.37,0-11.6,3.49-11.6,8.63c0,4.17,3.71,6.74,10.45,8.06l11.31,2.29
			c11.2,2.17,21.37,7.71,21.37,22.51c0,15.25-11.66,25.2-32.05,25.2c-23.83,0-31.37-12.97-31.54-24.28H769.5z"/>
	</g>
	<polygon class="st1" points="467.75,507.97 467.75,525.6 384.27,525.6 384.27,444.71 401.9,444.71 401.9,507.97 	"/>
	<polygon class="st1" points="741.46,444.71 741.46,525.6 663.11,525.6 663.11,507.97 723.83,507.97 723.83,444.71 	"/>
	<polygon class="st1" points="741.46,168.41 741.46,249.32 723.83,249.32 723.83,186.04 663.11,186.04 663.11,168.41 	"/>
	<polygon class="st1" points="467.75,168.41 467.75,186.04 401.9,186.04 401.9,249.32 384.27,249.32 384.27,168.41 	"/>
	<polygon class="st0" points="681.5,69.67 681.5,144.09 663.51,144.09 663.51,87.66 141.76,87.66 141.76,281.05 123.77,281.05 
		123.77,69.67 	"/>
	<polygon class="st0" points="360.09,444.68 360.09,462.67 123.77,462.67 123.77,398.91 141.76,398.91 141.76,444.68 	"/>
</g>
</svg>
